<?xml version="1.0" encoding="iso-8859-1"?>
<!-- Generator: Adobe Illustrator 16.0.0, SVG Export Plug-In . SVG Version: 6.00 Build 0)  -->
<!DOCTYPE svg PUBLIC "-//W3C//DTD SVG 1.1//EN" "http://www.w3.org/Graphics/SVG/1.1/DTD/svg11.dtd">
<svg version="1.1" id="Capa_1" xmlns="http://www.w3.org/2000/svg" xmlns:xlink="http://www.w3.org/1999/xlink" x="0px" y="0px"
	 width="747.229px" height="747.229px" viewBox="0 0 747.229 747.229" style="enable-background:new 0 0 747.229 747.229;"
	 xml:space="preserve">
<g>
	<g id="iconos_13_">
		<path d="M356.8,117.29c6.633-38.882-3.058-75.351-38.87-99.507l-14.466,84.831l-53.56,21.458L206.48,86.068L221.157,0
			c-32.014,12.177-63.359,42.347-70.153,82.195c-8.316,48.757,19.082,95.362,62.877,113.838l0.024,23.711h16.199h64.969h7.375
			l-0.037-27.237C330.205,177.878,351.083,150.851,356.8,117.29z"/>
		<path d="M151.177,623.787c-7.153,38.783,8.118,76.502,36.604,99.854c0,0,43.362,35.937,96.525,19.095
			c36.048-11.422,65.142-41.258,72.479-81.007c8.502-46.061-14.603-90.622-53.93-111.4l-0.049-33.586h-72.703h-15.852l0.036,29.378
			C182.548,559.189,157.859,587.528,151.177,623.787z M228.372,590.993h54.76l27.386,55.688l-27.386,55.688h-54.76l-27.386-55.688
			L228.372,590.993z"/>
	</g>
	<path d="M413.017,284.367l-32.472-47.874H125.124v49.023h88.309v22.214h-0.792h-87.517v47.491h87.12h0.792v23.746h-87.912v49.023
		c4.356,0,88.309-0.383,88.309-0.383v23.746h-0.792h-87.517v48.64H380.94l34.848-46.725h206.316v-168.9
		C622.104,284.367,413.017,284.367,413.017,284.367z"/>
</g>
<g>
</g>
<g>
</g>
<g>
</g>
<g>
</g>
<g>
</g>
<g>
</g>
<g>
</g>
<g>
</g>
<g>
</g>
<g>
</g>
<g>
</g>
<g>
</g>
<g>
</g>
<g>
</g>
<g>
</g>
</svg>
